<svg id="Layer_1" data-name="Layer 1" xmlns="http://www.w3.org/2000/svg" xmlns:xlink="http://www.w3.org/1999/xlink" viewBox="0 0 400.31 400"><defs><style>.cls-1{fill:none;}.cls-2{fill:#0fd354;}.cls-3{clip-path:url(#clip-path);}.cls-4{fill:#16113a;}</style><clipPath id="clip-path" transform="translate(0)"><path class="cls-1" d="M360,400H40A40,40,0,0,1,0,360V40A40,40,0,0,1,40,0H360c22.09,0,40.21,18.17,40,40V360A40,40,0,0,1,360,400Z"/></clipPath></defs><title>dark-bg-logo</title><rect class="cls-2" width="398.55" height="400" rx="39.93"/><g class="cls-3"><path class="cls-4" d="M386.39,11.24c-40.95,84.87-98.87,207.31-100.69,211.1-7.6,15.83-43.82,61.61-99,35.09C122.34,226.54,150,161.75,151.71,158c14.85-32,29-25.76,35.21-22.22a17.68,17.68,0,0,1,8.5,11.72c.75,3.14,1.07,8.18-4.69,15.68a44.39,44.39,0,0,0,70.39,54.1c20.76-27,28.1-59.11,20.65-90.35-7.31-30.69-28.93-58-56.41-71.16C165.57,27,103.82,52.67,71.7,119.54c-29.36,61.12-25,169.13,76.53,217.91C248.64,385.68,337.6,320.32,366.11,261c4.31-8.95,17-35.48,33.89-70.71,0-45.29.35-80.31.31-106.72,0-18.88-.31-33.42-.28-44C400.06,30.42,394.33,17.61,386.39,11.24Z" transform="translate(0)"/></g></svg>