<svg width="34" height="29" viewBox="0 0 34 29" fill="none" xmlns="http://www.w3.org/2000/svg">
<path d="M6.90496 5.17954C18.4767 -1.24999 26.6441 -2.56462 32.2866 6.26682C37.9292 15.0983 28.4552 24.8439 20.9584 27.7732C16.6421 29.4598 4.94971 29.7818 3.09846 26.309C-0.651141 19.2752 -2.6185 10.471 6.90496 5.17954Z" fill="#00D1FF"/>
<path d="M13.7031 21.1562C13.4922 21.1562 13.3516 21.2266 13.2109 21.3672C13.0703 21.5078 13 21.6836 13 21.8594V23.5469C13 23.7578 13.0703 23.8984 13.2109 24.0391C13.3516 24.1797 13.4922 24.25 13.7031 24.25H19.0469C19.2227 24.25 19.3984 24.1797 19.5391 24.0391C19.6797 23.8984 19.75 23.7578 19.75 23.5469V21.8594C19.75 21.6836 19.6797 21.5078 19.5391 21.3672C19.3984 21.2266 19.2227 21.1562 19.0469 21.1562H18.3438V13.7031C18.3438 13.5273 18.2734 13.3516 18.1328 13.2109C17.9922 13.0703 17.8164 13 17.6406 13H13.7031C13.4922 13 13.3516 13.0703 13.2109 13.2109C13.0703 13.3516 13 13.5273 13 13.7031V15.3906C13 15.6016 13.0703 15.7422 13.2109 15.8828C13.3516 16.0234 13.4922 16.0938 13.7031 16.0938H14.4062V21.1562H13.7031ZM16.375 6.25C17.0781 6.25 17.6758 6.49609 18.168 6.98828C18.6602 7.48047 18.9062 8.07812 18.9062 8.78125C18.9062 9.48438 18.6602 10.082 18.168 10.5742C17.6758 11.0664 17.0781 11.3125 16.375 11.3125C15.6719 11.3125 15.0742 11.0664 14.582 10.5742C14.0898 10.082 13.8438 9.48438 13.8438 8.78125C13.8438 8.07812 14.0898 7.48047 14.582 6.98828C15.0742 6.49609 15.6719 6.25 16.375 6.25Z" fill="#16113A"/>
</svg>
