<svg id="Layer_1" data-name="Layer 1" xmlns="http://www.w3.org/2000/svg" viewBox="0 0 2522.74 632.56"><defs><style>.cls-1{fill:#0fd354;}</style></defs><title>logo-geckoboard-colour--big</title><path class="cls-1" d="M538.2,663.82H363.82c6.16,28.43,25.58,46,51.17,46,17.54,0,37.91-4.26,50.7-27.48L533,696c-20.37,50.23-63.49,74.39-118,74.39-68.71,0-125.56-50.7-125.56-126,0-74.87,56.85-126,126-126,67.29,0,121.31,48.34,122.74,126Zm-173-46.43h98.08c-7.1-25.6-26.06-37.44-47.86-37.44C394.14,580,372.35,593.22,365.24,617.39Z" transform="translate(-2.47 -399.2)"/><path class="cls-1" d="M727.55,662.4l69.65,15.16c-11.85,56.39-62.07,92.87-121.3,92.87-71.07,0-129.83-50.7-129.83-126,0-74.87,58.76-126,129.83-126,57.8,0,108,35.54,121.3,91.46l-71.07,17.05c-6.63-28.9-26.06-42.17-50.23-42.17-34.12,0-56.86,25.12-56.86,59.71,0,35.05,22.74,59.7,56.86,59.7C700.07,704.1,719.5,691.3,727.55,662.4Z" transform="translate(-2.47 -399.2)"/><path class="cls-1" d="M1294.56,644.4c0,75.33-59.71,125.56-130.3,125.56-72,0-131.74-50.23-131.74-125.56,0-74.87,59.71-125.1,131.74-125.1C1234.85,519.3,1294.56,569.53,1294.56,644.4Zm-73,0c0-37-27.95-61.6-57.32-61.6-30.81,0-58.76,24.63-58.76,61.6,0,37.42,28,61.59,58.76,61.59C1193.63,706,1221.58,681.82,1221.58,644.4Z" transform="translate(-2.47 -399.2)"/><path class="cls-1" d="M1836.84,644.4c0,75.33-59.71,125.56-130.3,125.56-72,0-131.73-50.23-131.73-125.56,0-74.87,59.7-125.1,131.73-125.1C1777.13,519.3,1836.84,569.53,1836.84,644.4Zm-73,0c0-37-27.95-61.6-57.33-61.6-30.81,0-58.76,24.63-58.76,61.6,0,37.42,28,61.59,58.76,61.59C1735.92,706,1763.87,681.82,1763.87,644.4Z" transform="translate(-2.47 -399.2)"/><path class="cls-1" d="M2072.24,612.65V763.33h-73V745.79c-16.59,14.22-39.33,24.64-71.08,24.64-53.07,0-88.61-30.79-88.61-77.71,0-46.43,35.54-76.76,99-76.76h60.65v-4.74c0-19.89-13.75-33.16-33.65-33.16-22.74,0-36,9-39.79,29.85l-71.55-14.69c10.42-46,52.12-74.87,109-74.87C2030.07,518.35,2072.24,552,2072.24,612.65Zm-73,56.86v-5.22h-52.12c-19,0-30.8,10-30.8,24.65,0,15.16,13.27,24.63,33.17,24.63C1975.58,713.57,1999.27,696,1999.27,669.51Z" transform="translate(-2.47 -399.2)"/><path class="cls-1" d="M2259.18,524l-3.33,75.81h-13.73c-53.08,0-82,27.49-82,89.09v74.39h-75.81V525.46h75.81V571c17.07-28.43,43.13-48.8,82-48.8A65,65,0,0,1,2259.18,524Z" transform="translate(-2.47 -399.2)"/><path class="cls-1" d="M281.81,741.62h-.11V525.5H205.89v19c-18.48-16.58-43.12-26.06-73.91-26.06-63,0-116.1,51.18-116.1,126,0,75.34,53.07,126,116.1,126,30.71,0,55.3-9.43,73.76-25.93V892c0,15-11,63.8-63.43,63.8-61.09,0-63.79-60.24-63.84-63.8-.4-30.2,12.81-30.62,18.94-30.2a15.11,15.11,0,0,1,10.9,5.89c1.74,2.15,3.86,5.92,2.2,13.84a38,38,0,1,0,74.37,15.66c6-28.55-.22-56-17.55-77.39-17-21-43.81-34-69.92-34C40.62,785.75,2.47,828.43,2.47,892c0,58,43.38,139.8,139.84,139.8,95.38,0,139.81-83.42,139.81-139.8C282.12,856.18,281.81,741.62,281.81,741.62ZM147.61,706c-33.17,0-57.34-24.64-57.34-61.6,0-36.48,24.17-61.59,57.34-61.59,30.79,0,58.28,25.11,58.28,61.59C205.89,681.39,178.4,706,147.61,706Z" transform="translate(-2.47 -399.2)"/><path class="cls-1" d="M2525.2,763.33h-75.81v-19c-18.48,16.58-43.12,26-73.92,26-63,0-116.08-50.7-116.08-126,0-74.87,53.06-126,116.08-126,30.8,0,55.44,9.48,73.92,26.06v-145h75.81ZM2449.39,644.4c0-36.49-27.48-61.6-58.28-61.6-33.17,0-57.33,25.11-57.33,61.6,0,37,24.16,61.59,57.33,61.59C2421.91,706,2449.39,681.36,2449.39,644.4Z" transform="translate(-2.47 -399.2)"/><path class="cls-1" d="M1568.63,644.4c0,75.33-53.08,126-116.09,126-30.8,0-55.44-9.47-73.92-26v19H1302.8V399.68h75.82V544.41c18.48-16.58,43.12-26.06,73.92-26.06C1515.55,518.35,1568.63,569.53,1568.63,644.4Zm-74.4,0c0-36.49-24.17-61.6-57.33-61.6-30.8,0-58.28,25.11-58.28,61.6,0,37,27.48,61.59,58.28,61.59C1470.06,706,1494.23,681.36,1494.23,644.4Z" transform="translate(-2.47 -399.2)"/><path class="cls-1" d="M983.37,762.32l-63.45-81-36,40.71v40.24H808.2V399.2H884V619.82l85.68-95.16h88.53l-87.57,99.42,106.05,138.24Z" transform="translate(-2.47 -399.2)"/></svg>